<svg width="451" height="192" viewBox="0 0 451 192" fill="none" xmlns="http://www.w3.org/2000/svg">
<path d="M296.02 15.9V32.1H193.36V2.05H119.79V175.46H193.36L374.85 176.54V15.9H296.02Z" fill="url(#paint0_linear)"/>
<path d="M356.19 26.82H307.61C306.93 26.82 306.38 26.27 306.38 25.59C306.38 24.91 306.93 24.36 307.61 24.36H356.19C356.87 24.36 357.42 24.91 357.42 25.59C357.42 26.27 356.87 26.82 356.19 26.82Z" fill="white"/>
<path d="M356.19 36.44H307.61C306.93 36.44 306.38 35.89 306.38 35.21C306.38 34.53 306.93 33.98 307.61 33.98H356.19C356.87 33.98 357.42 34.53 357.42 35.21C357.42 35.88 356.87 36.44 356.19 36.44Z" fill="white"/>
<path d="M356.19 46.05H307.61C306.93 46.05 306.38 45.5 306.38 44.82C306.38 44.14 306.93 43.59 307.61 43.59H356.19C356.87 43.59 357.42 44.14 357.42 44.82C357.42 45.5 356.87 46.05 356.19 46.05Z" fill="white"/>
<path d="M356.19 55.67H307.61C306.93 55.67 306.38 55.12 306.38 54.44C306.38 53.76 306.93 53.21 307.61 53.21H356.19C356.87 53.21 357.42 53.76 357.42 54.44C357.42 55.12 356.87 55.67 356.19 55.67Z" fill="white"/>
<path d="M356.19 65.28H307.61C306.93 65.28 306.38 64.73 306.38 64.05C306.38 63.37 306.93 62.82 307.61 62.82H356.19C356.87 62.82 357.42 63.37 357.42 64.05C357.42 64.73 356.87 65.28 356.19 65.28Z" fill="white"/>
<path d="M356.19 74.9H307.61C306.93 74.9 306.38 74.35 306.38 73.67C306.38 72.99 306.93 72.44 307.61 72.44H356.19C356.87 72.44 357.42 72.99 357.42 73.67C357.42 74.35 356.87 74.9 356.19 74.9Z" fill="white"/>
<path d="M134.52 11.09H128.21V17.4H134.52V11.09Z" fill="white"/>
<path d="M147.27 11.09H140.96V17.4H147.27V11.09Z" fill="white"/>
<path d="M160.02 11.09H153.71V17.4H160.02V11.09Z" fill="white"/>
<path d="M172.77 11.09H166.46V17.4H172.77V11.09Z" fill="white"/>
<path d="M134.52 26.82H128.21V33.13H134.52V26.82Z" fill="white"/>
<path d="M147.27 26.82H140.96V33.13H147.27V26.82Z" fill="white"/>
<path d="M160.02 26.82H153.71V33.13H160.02V26.82Z" fill="white"/>
<path d="M172.77 26.82H166.46V33.13H172.77V26.82Z" fill="white"/>
<path d="M134.52 42.55H128.21V48.86H134.52V42.55Z" fill="white"/>
<path d="M147.27 42.55H140.96V48.86H147.27V42.55Z" fill="white"/>
<path d="M160.02 42.55H153.71V48.86H160.02V42.55Z" fill="white"/>
<path d="M172.77 42.55H166.46V48.86H172.77V42.55Z" fill="white"/>
<path d="M254.9 139.68C249.67 150.86 242.62 150.86 240.3 150.86C234.68 150.86 230.03 147.31 226.47 140.32C222.19 131.92 219.92 119.31 219.92 103.86C219.92 103.66 219.92 103.46 219.93 103.26H190.24C190.24 103.39 190.23 103.53 190.23 103.66V103.69V103.72C190.43 125.66 194.98 143.93 203.37 156.56C212.06 169.63 224.48 176.54 239.29 176.54C255.59 176.54 268.89 169.47 277.75 156.1C286.08 143.53 290.37 125.75 290.55 103.26H260.88C260.83 118.83 258.77 131.42 254.9 139.68Z" fill="#3366EE"/>
<path d="M233.92 182H205.7L207.61 171.12L209.5 160.32L211.41 149.44L213.31 138.64L214.73 130.54C215 128.98 216.36 127.84 217.95 127.84H221.69C223.28 127.84 224.63 128.98 224.91 130.54L226.33 138.64L228.23 149.44L230.14 160.32L232.03 171.12L233.92 182Z" fill="#FFA726"/>
<path d="M242.68 188.36H196.94L205.7 182.01H233.92L242.68 188.36Z" fill="#FB8C00"/>
<path d="M240.14 191.86H199.48C198.08 191.86 196.94 190.72 196.94 189.32V188.36H242.68V189.32C242.68 190.72 241.54 191.86 240.14 191.86Z" fill="#FFA726"/>
<path d="M228.21 149.44H211.41L213.3 138.64H226.32L228.21 149.44Z" fill="#ECEFF1"/>
<path d="M232.01 171.13H207.61L209.5 160.33H230.12L232.01 171.13Z" fill="#ECEFF1"/>
<path d="M242.68 190.65V188.36L233.92 182.01L232.01 171.13L230.12 160.33L228.21 149.45L226.31 138.65L224.89 130.55C224.61 128.99 223.26 127.85 221.67 127.85L227.22 182.01L233.91 188.36V191.86H241.46C242.14 191.86 242.68 191.32 242.68 190.65Z" fill="url(#paint1_linear)" fill-opacity="0.3"/>
<path d="M196.94 190.65V188.36L205.7 182.01L207.61 171.13L209.5 160.33L211.41 149.45L213.31 138.65L214.73 130.55C215.01 128.99 216.36 127.85 217.95 127.85L212.4 182.01L205.71 188.36V191.86H198.16C197.48 191.86 196.94 191.32 196.94 190.65Z" fill="url(#paint2_linear)" fill-opacity="0.5"/>
<path d="M291.88 50.11C283.32 36.94 270.58 29.98 255.02 29.98C239.67 29.98 226.71 36.91 217.55 50.02C208.58 62.86 203.82 81.27 203.76 103.26H233.45C233.51 87.58 235.87 74.78 240.3 66.23C243.93 59.21 248.55 55.66 254.03 55.66C261.64 55.66 274.41 61.77 274.41 102.66C274.41 102.86 274.41 103.06 274.4 103.26H304.07C304.07 102.79 304.09 102.33 304.09 101.86C304.08 79.99 299.98 62.58 291.88 50.11Z" fill="#3366EE"/>
<path d="M405.06 110.83H392.88V36.01V29.97H386.84H367.83H364.68L362.88 32.55L304.84 115.61L303.75 117.17V119.07V130.68V136.72H309.79H364.19V166.11V172.15H370.23H386.84H392.88V166.11V136.72H405.06H411.1V130.68V116.87V110.83H405.06ZM339.1 110.83L364.2 75.94V110.83H339.1Z" fill="#3366EE"/>
<path d="M72.34 172.43C71.39 172.43 70.58 171.72 70.47 170.76L51.63 3.67999C51.51 2.64999 52.26 1.70999 53.29 1.59999C54.33 1.48999 55.26 2.22999 55.37 3.25999L74.21 170.34C74.33 171.37 73.58 172.31 72.55 172.42C72.48 172.43 72.41 172.43 72.34 172.43Z" fill="#8C9EA5"/>
<path d="M123.35 172.43C122.4 172.43 121.59 171.72 121.48 170.76L102.64 3.67999C102.52 2.64999 103.27 1.70999 104.3 1.59999C105.34 1.48999 106.27 2.22999 106.38 3.25999L125.22 170.34C125.34 171.37 124.59 172.31 123.56 172.42C123.49 172.43 123.42 172.43 123.35 172.43Z" fill="#8C9EA5"/>
<path d="M106.47 22.78H55.46C54.42 22.78 53.58 21.94 53.58 20.9C53.58 19.86 54.42 19.02 55.46 19.02H106.47C107.51 19.02 108.35 19.86 108.35 20.9C108.36 21.93 107.51 22.78 106.47 22.78Z" fill="#8C9EA5"/>
<path d="M107.54 39.35H57.59C56.55 39.35 55.71 38.51 55.71 37.47C55.71 36.43 56.55 35.59 57.59 35.59H107.54C108.58 35.59 109.42 36.43 109.42 37.47C109.42 38.51 108.58 39.35 107.54 39.35Z" fill="#8C9EA5"/>
<path d="M108.6 55.93H59.72C58.68 55.93 57.84 55.09 57.84 54.05C57.84 53.01 58.68 52.17 59.72 52.17H108.6C109.64 52.17 110.48 53.01 110.48 54.05C110.49 55.09 109.64 55.93 108.6 55.93Z" fill="#8C9EA5"/>
<path d="M112.08 72.51H61.93C60.89 72.51 60.05 71.67 60.05 70.63C60.05 69.59 60.89 68.75 61.93 68.75H112.08C113.12 68.75 113.96 69.59 113.96 70.63C113.97 71.67 113.12 72.51 112.08 72.51Z" fill="#8C9EA5"/>
<path d="M113.93 89.09H63.48C62.44 89.09 61.6 88.25 61.6 87.21C61.6 86.17 62.44 85.33 63.48 85.33H113.93C114.97 85.33 115.81 86.17 115.81 87.21C115.81 88.25 114.97 89.09 113.93 89.09Z" fill="#8C9EA5"/>
<path d="M115.82 105.67H65.33C64.29 105.67 63.45 104.83 63.45 103.79C63.45 102.75 64.29 101.91 65.33 101.91H115.82C116.86 101.91 117.7 102.75 117.7 103.79C117.71 104.83 116.86 105.67 115.82 105.67Z" fill="#8C9EA5"/>
<path d="M104.88 6.92H50.05C48.14 6.92 46.59 5.36999 46.59 3.45999C46.59 1.54999 48.14 0 50.05 0H104.88C106.79 0 108.34 1.54999 108.34 3.45999C108.34 5.36999 106.79 6.92 104.88 6.92Z" fill="#B0BEC5"/>
<path d="M83.39 172.43C83.32 172.43 83.25 172.43 83.18 172.42C82.15 172.3 81.4 171.37 81.52 170.34L100.36 3.25999C100.48 2.22999 101.41 1.48999 102.44 1.59999C103.47 1.71999 104.22 2.64999 104.1 3.67999L85.26 170.76C85.15 171.72 84.33 172.43 83.39 172.43Z" fill="#B0BEC5"/>
<path d="M32.37 172.43C32.3 172.43 32.23 172.43 32.16 172.42C31.13 172.3 30.38 171.37 30.5 170.34L49.34 3.25999C49.46 2.22999 50.39 1.48999 51.42 1.59999C52.45 1.71999 53.2 2.64999 53.08 3.67999L34.24 170.76C34.14 171.72 33.32 172.43 32.37 172.43Z" fill="#B0BEC5"/>
<path d="M100.26 22.78H49.25C48.21 22.78 47.37 21.94 47.37 20.9C47.37 19.86 48.21 19.02 49.25 19.02H100.26C101.3 19.02 102.14 19.86 102.14 20.9C102.15 21.93 101.3 22.78 100.26 22.78Z" fill="#B0BEC5"/>
<path d="M98.13 39.35H48.18C47.14 39.35 46.3 38.51 46.3 37.47C46.3 36.43 47.14 35.59 48.18 35.59H98.13C99.17 35.59 100.01 36.43 100.01 37.47C100.01 38.51 99.17 39.35 98.13 39.35Z" fill="#B0BEC5"/>
<path d="M96 55.93H47.12C46.08 55.93 45.24 55.09 45.24 54.05C45.24 53.01 46.08 52.17 47.12 52.17H96C97.04 52.17 97.88 53.01 97.88 54.05C97.88 55.09 97.04 55.93 96 55.93Z" fill="#B0BEC5"/>
<path d="M93.79 72.51H43.64C42.6 72.51 41.76 71.67 41.76 70.63C41.76 69.59 42.6 68.75 43.64 68.75H93.79C94.83 68.75 95.67 69.59 95.67 70.63C95.68 71.67 94.83 72.51 93.79 72.51Z" fill="#B0BEC5"/>
<path d="M92.24 89.09H41.79C40.75 89.09 39.91 88.25 39.91 87.21C39.91 86.17 40.75 85.33 41.79 85.33H92.24C93.28 85.33 94.12 86.17 94.12 87.21C94.13 88.25 93.28 89.09 92.24 89.09Z" fill="#B0BEC5"/>
<path d="M90.39 105.67H39.9C38.86 105.67 38.02 104.83 38.02 103.79C38.02 102.75 38.86 101.91 39.9 101.91H90.39C91.43 101.91 92.27 102.75 92.27 103.79C92.28 104.83 91.43 105.67 90.39 105.67Z" fill="#B0BEC5"/>
<path d="M137.64 124.65L200.08 83.43L205.12 80.1L201.79 75.06L191.32 59.19L189.59 56.56L186.44 56.48L85.15 53.79L83.25 53.74L81.66 54.79L71.97 61.18L66.93 64.51L70.26 69.55L100.23 114.96L75.7 131.15L70.66 134.48L73.99 139.52L83.14 153.38L86.47 158.42L91.51 155.09L116.04 138.9L122.75 149.06L126.08 154.1L131.12 150.77L142.65 143.16L147.69 139.83L144.36 134.79L137.64 124.65ZM108.01 79.76L150.95 81.49L121.83 100.71L108.01 79.76Z" fill="#3366EE"/>
<path d="M49.75 150.67C41.14 150.67 34.17 157.65 34.17 166.25C34.17 174.86 41.15 181.83 49.75 181.83H181.55V150.66H49.75V150.67Z" fill="#B0BEC5"/>
<path d="M49.75 150.67C41.14 150.67 34.17 157.65 34.17 166.25C34.17 174.86 41.15 181.83 49.75 181.83H181.55V150.66H49.75V150.67Z" fill="url(#paint3_linear)"/>
<path d="M187.475 180.67C195.438 177.408 199.249 168.309 195.987 160.346C192.725 152.383 183.625 148.573 175.663 151.835C167.7 155.097 163.889 164.196 167.151 172.159C170.413 180.122 179.513 183.932 187.475 180.67Z" fill="#CFD8DC"/>
<path d="M181.55 177.48C187.752 177.48 192.78 172.452 192.78 166.25C192.78 160.048 187.752 155.02 181.55 155.02C175.348 155.02 170.32 160.048 170.32 166.25C170.32 172.452 175.348 177.48 181.55 177.48Z" fill="#B0BEC5"/>
<path d="M181.55 177.48C187.752 177.48 192.78 172.452 192.78 166.25C192.78 160.048 187.752 155.02 181.55 155.02C175.348 155.02 170.32 160.048 170.32 166.25C170.32 172.452 175.348 177.48 181.55 177.48Z" fill="url(#paint4_linear)"/>
<path d="M32.96 122.92C24.35 122.92 17.38 129.9 17.38 138.5C17.38 147.11 24.36 154.08 32.96 154.08H164.76V122.91H32.96V122.92Z" fill="#B0BEC5"/>
<path d="M32.96 122.92C24.35 122.92 17.38 129.9 17.38 138.5C17.38 147.11 24.36 154.08 32.96 154.08H164.76V122.91H32.96V122.92Z" fill="url(#paint5_linear)"/>
<path d="M175.774 149.525C181.858 143.441 181.858 133.576 175.774 127.492C169.689 121.408 159.825 121.407 153.74 127.492C147.656 133.576 147.656 143.441 153.74 149.525C159.825 155.609 169.689 155.609 175.774 149.525Z" fill="#CFD8DC"/>
<path d="M164.76 149.74C170.962 149.74 175.99 144.712 175.99 138.51C175.99 132.308 170.962 127.28 164.76 127.28C158.558 127.28 153.53 132.308 153.53 138.51C153.53 144.712 158.558 149.74 164.76 149.74Z" fill="#B0BEC5"/>
<path d="M164.76 149.74C170.962 149.74 175.99 144.712 175.99 138.51C175.99 132.308 170.962 127.28 164.76 127.28C158.558 127.28 153.53 132.308 153.53 138.51C153.53 144.712 158.558 149.74 164.76 149.74Z" fill="url(#paint6_linear)"/>
<path d="M15.58 150.67C6.97 150.67 0 157.65 0 166.25C0 174.86 6.98 181.83 15.58 181.83H147.38V150.66H15.58V150.67Z" fill="#B0BEC5"/>
<path d="M153.446 180.623C161.371 177.271 165.077 168.129 161.725 160.204C158.373 152.279 149.231 148.573 141.306 151.925C133.381 155.277 129.674 164.419 133.027 172.344C136.379 180.269 145.521 183.976 153.446 180.623Z" fill="#CFD8DC"/>
<path d="M147.38 177.48C153.582 177.48 158.61 172.452 158.61 166.25C158.61 160.048 153.582 155.02 147.38 155.02C141.178 155.02 136.15 160.048 136.15 166.25C136.15 172.452 141.178 177.48 147.38 177.48Z" fill="#B0BEC5"/>
<path d="M147.38 177.48C153.582 177.48 158.61 172.452 158.61 166.25C158.61 160.048 153.582 155.02 147.38 155.02C141.178 155.02 136.15 160.048 136.15 166.25C136.15 172.452 141.178 177.48 147.38 177.48Z" fill="url(#paint7_linear)"/>
<path d="M428.23 151.25V114.49C428.23 112.1 425.95 110.16 423.15 110.16H386.82C384.01 110.16 381.74 112.1 381.74 114.49V151.25C381.74 155.26 384.07 159.01 387.96 161.26L399.54 167.96C402.83 169.86 407.14 169.86 410.43 167.96L422.01 161.26C425.9 159.01 428.23 155.26 428.23 151.25Z" fill="#90A4AE"/>
<path d="M404.67 110.16V129.2C404.67 131.34 406.4 133.07 408.54 133.07C410.68 133.07 412.41 131.34 412.41 129.2V110.16H404.67Z" fill="url(#paint8_linear)"/>
<path d="M408.86 37.47V129.2C408.86 131.34 407.13 133.07 404.99 133.07C402.85 133.07 401.12 131.34 401.12 129.2V37.47H408.86Z" fill="#37474F"/>
<path d="M403.05 132.55C403.62 132.88 404.28 133.07 404.99 133.07C407.13 133.07 408.86 131.34 408.86 129.2V37.47H404.99V129.2C404.99 130.64 404.21 131.88 403.05 132.55Z" fill="url(#paint9_linear)"/>
<path d="M423.83 4.31V20.89C423.83 31.28 415.38 39.74 404.98 39.74C394.59 39.74 386.13 31.29 386.13 20.89V4.31C386.13 3.06 387.14 2.03999 388.4 2.03999H421.56C422.82 2.04999 423.83 3.06 423.83 4.31ZM390.68 20.89C390.68 28.78 397.1 35.2 404.99 35.2C412.88 35.2 419.3 28.78 419.3 20.89V6.58H390.67V20.89H390.68Z" fill="#37474F"/>
<path d="M414.24 1.76999V6.98C414.24 7.69 413.66 8.26999 412.95 8.26999H396.38C395.67 8.26999 395.09 7.69 395.09 6.98V1.76999C395.09 1.05999 395.67 0.479996 396.38 0.479996H412.95C413.67 0.479996 414.24 1.04999 414.24 1.76999Z" fill="#FFD740"/>
<path d="M383.08 156.37C384.15 158.32 385.82 160.02 387.96 161.26L399.54 167.96C402.83 169.86 407.14 169.86 410.43 167.96L422.01 161.26C424.16 160.02 425.83 158.32 426.89 156.37C423.69 148.36 415.09 142.62 404.98 142.62C394.88 142.62 386.28 148.36 383.08 156.37Z" fill="url(#paint10_linear)"/>
<path d="M259.53 176.34C253.56 176.34 250.67 168.86 255.21 164.98C255.91 164.38 256.67 163.87 257.48 163.44C260.74 161.74 264.72 161.61 268.15 162.91C270.36 163.74 272.86 163.24 274.61 161.67C277.2 159.35 280.86 158.1 284.4 157.99C287.8 157.89 291.12 158.65 294.37 159.72C297.01 160.59 299.93 159.65 301.57 157.41C308.57 147.82 320.01 141.73 331.8 139.57C338.93 138.26 346.48 138.26 353.24 140.88C358.31 142.85 362.88 146.45 365.62 151.08C367 153.42 369.76 154.63 372.43 154.1C377.56 153.09 383.32 154.97 386.91 158.78C388.97 160.96 392.21 161.61 394.82 160.14C397.15 158.83 399.66 157.93 402.32 157.84C405.36 157.73 408.55 159.05 410.52 161.26C412.11 163.04 414.56 163.73 416.91 163.37C418.72 163.1 420.61 163.39 422.2 164.29C422.23 164.31 422.26 164.33 422.29 164.34C427.96 167.65 425.47 176.39 418.9 176.39L259.53 176.34Z" fill="#CFD8DC"/>
<path d="M259.53 176.34C253.56 176.34 250.67 168.86 255.21 164.98C255.91 164.38 256.67 163.87 257.48 163.44C260.74 161.74 264.72 161.61 268.15 162.91C270.36 163.74 272.86 163.24 274.61 161.67C277.2 159.35 280.86 158.1 284.4 157.99C287.8 157.89 291.12 158.65 294.37 159.72C297.01 160.59 299.93 159.65 301.57 157.41C308.57 147.82 320.01 141.73 331.8 139.57C338.93 138.26 346.48 138.26 353.24 140.88C358.31 142.85 362.88 146.45 365.62 151.08C367 153.42 369.76 154.63 372.43 154.1C377.56 153.09 383.32 154.97 386.91 158.78C388.97 160.96 392.21 161.61 394.82 160.14C397.15 158.83 399.66 157.93 402.32 157.84C405.36 157.73 408.55 159.05 410.52 161.26C412.11 163.04 414.56 163.73 416.91 163.37C418.72 163.1 420.61 163.39 422.2 164.29C422.23 164.31 422.26 164.33 422.29 164.34C427.96 167.65 425.47 176.39 418.9 176.39L259.53 176.34Z" fill="url(#paint11_linear)"/>
<path d="M428.95 169.56H249.47C248.01 169.56 246.82 170.75 246.82 172.21V179.19C246.82 180.65 248.01 181.84 249.47 181.84H428.95C430.41 181.84 431.6 180.65 431.6 179.19V172.21C431.6 170.74 430.41 169.56 428.95 169.56Z" fill="#455A64"/>
<path d="M28.1667 113.093L20.6167 113.108L20.764 191.958L28.314 191.943L28.1667 113.093Z" fill="#37474F"/>
<path d="M15.21 188.67V189.54C15.21 190.88 16.3 191.97 17.64 191.97L31.47 191.94C32.81 191.94 33.9 190.85 33.9 189.5V188.63L15.21 188.67Z" fill="#37474F"/>
<path d="M28.32 185.02L20.78 185.03L15.21 188.67L33.9 188.63L28.32 185.02Z" fill="#455A64"/>
<path d="M28.32 185.02L28.13 113.1L25.35 113.11L25.54 185.03L28.23 188.65V189.52C28.23 190.86 27.15 191.95 25.8 191.95L31.47 191.94C32.81 191.94 33.9 190.85 33.9 189.5V188.63L28.32 185.02Z" fill="url(#paint12_linear)"/>
<path d="M33.42 104.01C33.41 99 29.34 94.94 24.33 94.95C19.32 94.96 15.26 99.03 15.27 104.04C15.28 109.05 19.35 113.11 24.36 113.1C29.37 113.09 33.43 109.02 33.42 104.01Z" fill="#3366EE"/>
<path opacity="0.5" d="M22.28 99.58C22.28 100.53 21.52 101.29 20.57 101.3C19.62 101.3 18.86 100.54 18.85 99.59C18.85 98.64 19.61 97.88 20.56 97.87C21.51 97.87 22.27 98.64 22.28 99.58Z" fill="white"/>
<path d="M444.15 115.514L436.83 115.527L436.972 191.177L444.292 191.164L444.15 115.514Z" fill="#37474F"/>
<path d="M431.58 187.99V188.83C431.58 190.13 432.64 191.19 433.94 191.18L447.36 191.15C448.66 191.15 449.72 190.09 449.71 188.79V187.95L431.58 187.99Z" fill="#37474F"/>
<path d="M444.3 184.45L436.98 184.46L431.58 187.99L449.72 187.95L444.3 184.45Z" fill="#455A64"/>
<path d="M444.39 184.45L444.21 115.51L441.51 115.52L441.69 184.46L444.3 187.97V188.81C444.3 190.11 443.25 191.17 441.95 191.17L447.45 191.16C448.75 191.16 449.81 190.1 449.8 188.8V187.96L444.39 184.45Z" fill="url(#paint13_linear)"/>
<path d="M449.25 106.69C449.24 101.83 445.29 97.89 440.43 97.9C435.57 97.91 431.63 101.86 431.64 106.72C431.65 111.58 435.6 115.52 440.46 115.51C445.32 115.51 449.26 111.56 449.25 106.69Z" fill="#3366EE"/>
<path opacity="0.5" d="M439.2 102.4C439.2 103.32 438.46 104.06 437.54 104.06C436.62 104.06 435.88 103.32 435.88 102.4C435.88 101.48 436.62 100.74 437.54 100.74C438.45 100.74 439.2 101.48 439.2 102.4Z" fill="white"/>
<path d="M450.865 115.513L14.0353 116.328L14.0661 132.838L450.896 132.023L450.865 115.513Z" fill="#FFD740"/>
<path d="M32.86 116.29L16.38 132.84H14.07L14.06 123.47L21.19 116.32L32.86 116.29Z" fill="#263238"/>
<path d="M54.75 116.25L38.26 132.8L26.59 132.82L43.08 116.28L54.75 116.25Z" fill="#263238"/>
<path d="M76.63 116.21L60.15 132.75L48.47 132.78L64.96 116.23L76.63 116.21Z" fill="#263238"/>
<path d="M98.52 116.17L82.03 132.71L70.36 132.74L86.84 116.19L98.52 116.17Z" fill="#263238"/>
<path d="M120.4 116.13L103.92 132.67L92.24 132.7L108.73 116.15L120.4 116.13Z" fill="#263238"/>
<path d="M142.29 116.09L125.8 132.63L114.13 132.65L130.61 116.11L142.29 116.09Z" fill="#263238"/>
<path d="M164.17 116.05L147.69 132.59L136.01 132.61L152.5 116.07L164.17 116.05Z" fill="#263238"/>
<path d="M186.06 116.01L169.57 132.55L157.9 132.57L174.38 116.03L186.06 116.01Z" fill="#263238"/>
<path d="M207.94 115.97L191.46 132.51L179.78 132.53L196.27 115.99L207.94 115.97Z" fill="#263238"/>
<path d="M229.83 115.93L213.34 132.47L201.67 132.49L218.15 115.95L229.83 115.93Z" fill="#263238"/>
<path d="M251.71 115.89L235.23 132.43L223.55 132.45L240.04 115.91L251.71 115.89Z" fill="#263238"/>
<path d="M273.6 115.85L257.11 132.39L245.44 132.41L261.92 115.87L273.6 115.85Z" fill="#263238"/>
<path d="M295.48 115.8L279 132.35L267.32 132.37L283.81 115.83L295.48 115.8Z" fill="#263238"/>
<path d="M317.37 115.76L300.88 132.31L289.21 132.33L305.7 115.79L317.37 115.76Z" fill="#263238"/>
<path d="M339.25 115.72L322.77 132.26L311.1 132.29L327.58 115.74L339.25 115.72Z" fill="#263238"/>
<path d="M361.14 115.68L344.65 132.22L332.98 132.25L349.47 115.7L361.14 115.68Z" fill="#263238"/>
<path d="M383.03 115.64L366.54 132.18L354.87 132.2L371.35 115.66L383.03 115.64Z" fill="#263238"/>
<path d="M404.91 115.6L388.43 132.14L376.75 132.16L393.24 115.62L404.91 115.6Z" fill="#263238"/>
<path d="M426.8 115.56L410.32 132.1L398.64 132.12L415.12 115.58L426.8 115.56Z" fill="#263238"/>
<path d="M448.68 115.52L432.2 132.06L420.52 132.08L437.01 115.54L448.68 115.52Z" fill="#263238"/>
<path d="M450.89 123.53L450.9 132.02L442.4 132.04L450.89 123.53Z" fill="#263238"/>
<defs>
<linearGradient id="paint0_linear" x1="247.323" y1="175.113" x2="247.323" y2="-74.3907" gradientUnits="userSpaceOnUse">
<stop offset="0.00065435" stop-color="white" stop-opacity="0"/>
<stop offset="1" stop-color="#90A4AE"/>
</linearGradient>
<linearGradient id="paint1_linear" x1="214.484" y1="157.981" x2="234.991" y2="160.834" gradientUnits="userSpaceOnUse">
<stop offset="0.229167" stop-color="white" stop-opacity="0"/>
<stop offset="1" stop-color="white"/>
</linearGradient>
<linearGradient id="paint2_linear" x1="231.042" y1="156.299" x2="186.284" y2="164.501" gradientUnits="userSpaceOnUse">
<stop offset="0.00065435" stop-color="white" stop-opacity="0"/>
<stop offset="1" stop-color="white"/>
</linearGradient>
<linearGradient id="paint3_linear" x1="107.861" y1="140.642" x2="107.861" y2="173.405" gradientUnits="userSpaceOnUse">
<stop offset="0.00099143" stop-color="white" stop-opacity="0"/>
<stop offset="1" stop-color="#B0BEC5"/>
</linearGradient>
<linearGradient id="paint4_linear" x1="209.586" y1="166.252" x2="169.105" y2="166.252" gradientUnits="userSpaceOnUse">
<stop offset="0.00099143" stop-color="white" stop-opacity="0"/>
<stop offset="1" stop-color="#B0BEC5"/>
</linearGradient>
<linearGradient id="paint5_linear" x1="91.0672" y1="121.07" x2="91.0672" y2="160.326" gradientUnits="userSpaceOnUse">
<stop offset="0.00099143" stop-color="white" stop-opacity="0"/>
<stop offset="1" stop-color="#B0BEC5"/>
</linearGradient>
<linearGradient id="paint6_linear" x1="192.792" y1="138.508" x2="152.311" y2="138.508" gradientUnits="userSpaceOnUse">
<stop offset="0.00099143" stop-color="white" stop-opacity="0"/>
<stop offset="1" stop-color="#B0BEC5"/>
</linearGradient>
<linearGradient id="paint7_linear" x1="175.416" y1="166.252" x2="134.934" y2="166.252" gradientUnits="userSpaceOnUse">
<stop offset="0.00099143" stop-color="white" stop-opacity="0"/>
<stop offset="1" stop-color="#B0BEC5"/>
</linearGradient>
<linearGradient id="paint8_linear" x1="408.544" y1="133.076" x2="408.544" y2="110.161" gradientUnits="userSpaceOnUse">
<stop offset="0.00065435" stop-color="white" stop-opacity="0"/>
<stop offset="1"/>
</linearGradient>
<linearGradient id="paint9_linear" x1="385.99" y1="82.4581" x2="431.702" y2="88.6427" gradientUnits="userSpaceOnUse">
<stop offset="0.00065435" stop-color="white" stop-opacity="0"/>
<stop offset="1"/>
</linearGradient>
<linearGradient id="paint10_linear" x1="405.177" y1="158.034" x2="401.166" y2="122.664" gradientUnits="userSpaceOnUse">
<stop offset="0.00065435" stop-color="white" stop-opacity="0"/>
<stop offset="1"/>
</linearGradient>
<linearGradient id="paint11_linear" x1="356.573" y1="149.465" x2="310.943" y2="203.054" gradientUnits="userSpaceOnUse">
<stop offset="0.00099143" stop-color="white" stop-opacity="0"/>
<stop offset="1" stop-color="#B0BEC5"/>
</linearGradient>
<linearGradient id="paint12_linear" x1="4.63567" y1="143.075" x2="66.5833" y2="169.264" gradientUnits="userSpaceOnUse">
<stop offset="0.00065435" stop-color="white" stop-opacity="0"/>
<stop offset="1"/>
</linearGradient>
<linearGradient id="paint13_linear" x1="421.62" y1="144.265" x2="481.184" y2="169.446" gradientUnits="userSpaceOnUse">
<stop offset="0.00065435" stop-color="white" stop-opacity="0"/>
<stop offset="1"/>
</linearGradient>
</defs>
</svg>
