<svg width="602" height="386" viewBox="0 0 602 386" fill="none" xmlns="http://www.w3.org/2000/svg">
<path d="M64.68 106.37C56.15 173.47 90.57 242.26 144.95 282.49C199.33 322.72 270.89 335.96 337.85 326.36C385.65 319.51 433.06 300.77 466.75 266.18C500.44 231.59 518.2 179.62 504.63 133.28C499.5 115.78 489.43 98.82 473.45 90.03C447.93 76 416.43 86.29 389.27 96.81C362.11 107.33 330.66 117.69 305.08 103.77C285.42 93.08 275.33 71.07 260.93 53.95C236.44 24.84 196.65 9.37999 158.92 14.33C154.2 14.95 149.54 15.88 144.96 17.11C104.83 27.88 74.49 60.85 65.73 101.47L64.68 106.37Z" fill="#EBEBEB"/>
<path d="M133.889 64.265L21.685 139.319L132.201 304.537L244.405 229.483L133.889 64.265Z" fill="#F5F5F5"/>
<path d="M186.42 221.66L185.15 229.54L129.37 221.5L130.64 213.62L186.42 221.66Z" fill="#E0E0E0"/>
<path d="M158.33 193.55L166.33 194.7L157.46 249.62L149.45 248.46L158.33 193.55Z" fill="#E0E0E0"/>
<path d="M106.95 123.75C107.03 123.87 95.79 131.53 81.84 140.86C67.89 150.19 56.52 157.66 56.44 157.54C56.36 157.42 67.6 149.76 81.55 140.43C95.5 131.09 106.87 123.63 106.95 123.75Z" fill="#E0E0E0"/>
<path d="M148.22 113.39C148.3 113.51 129.6 126.16 106.46 141.63C83.31 157.11 64.49 169.56 64.41 169.44C64.33 169.32 83.02 156.68 106.17 141.19C129.31 125.72 148.14 113.27 148.22 113.39Z" fill="#E0E0E0"/>
<path d="M156.49 125.75C156.57 125.87 137.87 138.52 114.73 153.99C91.58 169.47 72.76 181.92 72.68 181.8C72.6 181.68 91.29 169.04 114.44 153.55C137.58 138.09 156.41 125.63 156.49 125.75Z" fill="#E0E0E0"/>
<path d="M164.76 138.12C164.84 138.24 146.14 150.89 123 166.36C99.85 181.84 81.03 194.29 80.95 194.17C80.87 194.05 99.56 181.41 122.71 165.92C145.85 150.45 164.68 138 164.76 138.12Z" fill="#E0E0E0"/>
<path d="M173.03 150.49C173.11 150.61 154.41 163.26 131.27 178.73C108.12 194.21 89.3 206.66 89.22 206.54C89.14 206.42 107.83 193.78 130.98 178.29C154.12 162.82 172.95 150.37 173.03 150.49Z" fill="#E0E0E0"/>
<path d="M509.082 174.974L414.849 238.007L507.662 376.76L601.895 313.726L509.082 174.974Z" fill="#F5F5F5"/>
<path d="M553.2 307.18L552.13 313.8L505.29 307.05L506.35 300.43L553.2 307.18Z" fill="#E0E0E0"/>
<path d="M529.61 283.57L536.33 284.54L528.88 330.66L522.15 329.69L529.61 283.57Z" fill="#E0E0E0"/>
<path d="M486.46 224.95C486.54 225.07 477.11 231.52 465.39 239.35C453.67 247.19 444.11 253.44 444.03 253.32C443.95 253.2 453.38 246.75 465.1 238.91C476.82 231.08 486.38 224.83 486.46 224.95Z" fill="#E0E0E0"/>
<path d="M521.11 216.25C521.19 216.37 505.5 227.01 486.06 240.01C466.62 253.01 450.8 263.45 450.72 263.33C450.64 263.21 466.33 252.58 485.77 239.57C505.21 226.57 521.03 216.13 521.11 216.25Z" fill="#E0E0E0"/>
<path d="M528.06 226.63C528.14 226.75 512.45 237.39 493.01 250.39C473.57 263.39 457.75 273.83 457.67 273.71C457.59 273.59 473.28 262.96 492.72 249.95C512.16 236.96 527.98 226.52 528.06 226.63Z" fill="#E0E0E0"/>
<path d="M535.01 237.02C535.09 237.14 519.4 247.78 499.96 260.78C480.52 273.78 464.7 284.22 464.62 284.1C464.54 283.98 480.23 273.35 499.67 260.34C519.1 247.34 534.93 236.9 535.01 237.02Z" fill="#E0E0E0"/>
<path d="M541.95 247.41C542.03 247.53 526.34 258.17 506.9 271.17C487.46 284.17 471.64 294.61 471.56 294.49C471.48 294.37 487.17 283.74 506.61 270.73C526.05 257.73 541.87 247.29 541.95 247.41Z" fill="#E0E0E0"/>
<path d="M359.991 70.3278L257.173 15.3392L176.204 166.735L279.022 221.724L359.991 70.3278Z" fill="#F5F5F5"/>
<path d="M261.42 174.37L254.9 176.6L238.34 130.83L244.86 128.59L261.42 174.37Z" fill="#E0E0E0"/>
<path d="M271.42 141.53L273.8 148.1L228.34 163.67L225.96 157.1L271.42 141.53Z" fill="#E0E0E0"/>
<path d="M303.72 73.99C303.64 74.14 293.21 68.72 280.43 61.88C267.64 55.04 257.35 49.38 257.43 49.23C257.51 49.08 267.94 54.5 280.72 61.34C293.51 68.18 303.8 73.84 303.72 73.99Z" fill="#E0E0E0"/>
<path d="M328.4 101.23C328.32 101.38 311.06 92.31 289.86 80.97C268.65 69.63 251.52 60.31 251.6 60.16C251.68 60.01 268.94 69.08 290.15 80.43C311.35 91.76 328.48 101.08 328.4 101.23Z" fill="#E0E0E0"/>
<path d="M322.34 112.56C322.26 112.71 305 103.64 283.8 92.3C262.59 80.96 245.46 71.64 245.54 71.49C245.62 71.34 262.88 80.41 284.09 91.76C305.29 103.09 322.42 112.41 322.34 112.56Z" fill="#E0E0E0"/>
<path d="M316.28 123.89C316.2 124.04 298.94 114.97 277.74 103.63C256.53 92.29 239.4 82.97 239.48 82.82C239.56 82.67 256.82 91.74 278.03 103.09C299.23 114.42 316.36 123.74 316.28 123.89Z" fill="#E0E0E0"/>
<path d="M310.22 135.22C310.14 135.37 292.88 126.3 271.68 114.96C250.47 103.62 233.34 94.3 233.42 94.15C233.5 94 250.76 103.07 271.97 114.42C293.17 125.75 310.3 135.07 310.22 135.22Z" fill="#E0E0E0"/>
<path d="M577.67 381.83C577.67 381.97 448.42 382.09 289.02 382.09C129.56 382.09 0.339996 381.97 0.339996 381.83C0.339996 381.69 129.56 381.57 289.02 381.57C448.42 381.57 577.67 381.68 577.67 381.83Z" fill="#263238"/>
<path d="M32.29 319.2C35.67 319.32 38.84 321.15 41.07 323.7C43.3 326.24 44.67 329.44 45.54 332.71C47.23 339.03 46.19 346.5 44.39 352.79C37.54 350.34 33.32 343.04 31.41 339.2C28.4 333.14 26.63 320.34 32.29 319.2Z" fill="#3366EE"/>
<path d="M54.24 360.45C52.08 357.35 52.03 353.04 53.74 349.66C55.45 346.29 58.73 343.86 62.34 342.75C64.01 342.24 65.95 342.02 67.4 342.99C68.76 343.9 69.35 345.68 69.17 347.3C68.99 348.92 68.17 350.41 67.2 351.72C63.87 356.24 59.83 359.99 54.24 360.45Z" fill="#3366EE"/>
<path d="M55 381.58C54.97 381.59 54.86 381.12 54.69 380.27C54.51 379.33 54.27 378.12 53.99 376.67C53.45 373.64 52.59 369.33 53.24 364.57C53.86 359.83 55.75 355.77 57.73 353.35C58.7 352.13 59.64 351.26 60.33 350.73C60.66 350.45 60.96 350.28 61.14 350.14C61.33 350.01 61.44 349.95 61.45 349.97C61.52 350.05 59.85 351.09 58 353.56C56.13 355.99 54.33 359.97 53.71 364.64C53.07 369.31 53.86 373.58 54.32 376.62C54.56 378.15 54.76 379.39 54.88 380.25C54.98 381.1 55.03 381.58 55 381.58Z" fill="#263238"/>
<path d="M34.49 328.83C34.51 328.82 34.6 329 34.77 329.35C34.95 329.74 35.19 330.25 35.48 330.87C36.08 332.2 36.94 334.13 37.97 336.52C40.03 341.31 42.79 347.97 45.67 355.38C48.55 362.8 51 369.58 52.7 374.5C53.55 376.96 54.23 378.96 54.68 380.35C54.89 381.01 55.06 381.54 55.19 381.95C55.3 382.32 55.35 382.51 55.34 382.52C55.32 382.53 55.24 382.34 55.1 381.98C54.95 381.57 54.75 381.05 54.51 380.41C53.99 378.99 53.27 377.02 52.39 374.61C50.6 369.71 48.1 362.96 45.23 355.54C42.35 348.13 39.65 341.46 37.67 336.64C36.7 334.27 35.9 332.33 35.32 330.93C35.06 330.29 34.86 329.77 34.7 329.37C34.54 329.02 34.48 328.83 34.49 328.83Z" fill="#263238"/>
<path d="M46.87 367.6C42.83 360.73 35.3 356.05 27.35 355.47C25.33 355.32 22.89 355.66 21.99 357.48C21.09 359.3 22.29 361.45 23.67 362.95C29.41 369.16 39.11 371.33 46.94 368.15" fill="#3366EE"/>
<path d="M30.43 360.89C30.43 360.86 30.88 360.88 31.7 360.94C32.11 360.97 32.61 361 33.18 361.11C33.75 361.22 34.41 361.28 35.12 361.47C35.83 361.64 36.62 361.82 37.43 362.11C38.26 362.35 39.11 362.71 40 363.09C41.76 363.89 43.64 364.94 45.42 366.3C47.19 367.68 48.68 369.22 49.9 370.73C50.48 371.5 51.04 372.24 51.48 372.99C51.96 373.71 52.32 374.43 52.65 375.08C53.01 375.72 53.22 376.35 53.46 376.88C53.7 377.41 53.84 377.89 53.96 378.28C54.2 379.06 54.32 379.49 54.29 379.5C54.19 379.54 53.7 377.79 52.35 375.23C52 374.6 51.63 373.9 51.14 373.2C50.7 372.47 50.14 371.76 49.55 371.01C48.34 369.54 46.86 368.04 45.12 366.68C43.37 365.34 41.54 364.3 39.81 363.49C38.94 363.11 38.1 362.74 37.29 362.49C36.5 362.19 35.73 362 35.03 361.8C32.23 361.09 30.42 361 30.43 360.89Z" fill="#263238"/>
<path d="M484.36 47.47C481.42 48.15 479.99 51.53 479.71 54.53C479.43 57.53 479.81 60.71 478.55 63.45C477.13 66.54 473.74 68.81 473.62 72.2C473.55 74.27 474.78 76.22 474.72 78.29C474.62 81.69 471.16 84.26 470.98 87.65C470.85 90.1 472.48 92.44 472.09 94.86C471.79 96.74 470.32 98.22 469.7 100.03C468.47 103.62 470.93 107.58 474.15 109.6C477.73 111.85 482.32 112.44 486.35 111.15C490.38 109.86 493.78 106.73 495.39 102.81C497.17 98.49 496.78 93.63 496.39 88.97C495.18 74.46 494.29 59.93 493.7 45.39" fill="#263238"/>
<path d="M475.82 98.66C475.76 98.6 476.62 98.34 477.16 97.06C477.42 96.43 477.56 95.59 477.5 94.62C477.47 93.64 477.13 92.58 476.77 91.38C476.43 90.19 476 88.81 476.25 87.28C476.5 85.72 477.62 84.44 478.63 83.19C479.14 82.55 479.66 81.89 479.98 81.14C480.32 80.4 480.39 79.54 480.14 78.74C479.62 77.11 478.02 75.9 477.29 74.02C476.93 73.07 476.92 72.04 477.13 71.1C477.33 70.16 477.71 69.3 478.1 68.48C478.88 66.85 479.75 65.36 480.09 63.77C480.79 60.6 480.46 57.57 480.94 55.08C481.37 52.59 482.43 50.71 483.47 49.75C483.98 49.25 484.47 48.99 484.79 48.81C485.13 48.66 485.31 48.6 485.32 48.61C485.35 48.67 484.58 48.9 483.61 49.89C482.65 50.86 481.68 52.7 481.3 55.14C481.1 56.35 481.07 57.72 481.02 59.18C480.97 60.64 480.92 62.23 480.55 63.87C480.2 65.53 479.32 67.09 478.56 68.68C477.81 70.25 477.12 72.09 477.78 73.81C478.42 75.51 480.03 76.72 480.63 78.56C480.93 79.48 480.83 80.49 480.44 81.31C480.07 82.14 479.53 82.83 479.01 83.47C477.96 84.73 476.92 85.94 476.68 87.34C476.43 88.73 476.82 90.08 477.13 91.26C477.46 92.45 477.79 93.57 477.8 94.59C477.83 95.6 477.66 96.48 477.35 97.12C477.05 97.77 476.63 98.18 476.33 98.38C476.02 98.62 475.82 98.66 475.82 98.66Z" fill="#455A64"/>
<path d="M467.95 122.37L458.92 148.39L421.28 150.41L415 164.37L454.3 168.35C462.14 171.59 471.09 167.62 473.95 159.64L484.44 130.36L467.95 122.37Z" fill="#FBBEBE"/>
<path d="M545.81 367.7C545.81 367.7 518.22 280.08 517.64 277.24C517.11 274.67 527.65 211.62 528.98 195.3L491.71 196.69C491.71 196.69 491.71 196.79 491.71 196.96L475.87 197.84L490.06 377.03H507.21L505.51 317.58C516.09 345.98 531.24 374.91 531.24 374.91L545.81 367.7Z" fill="#FBBEBE"/>
<path d="M506.2 338.88C506.22 338.34 505.99 318.96 505.99 318.96C505.78 320.12 499.41 302.14 499.57 301.04C499.65 300.48 506.2 338.88 506.2 338.88Z" fill="#A36957"/>
<path d="M498.85 292.53C498.81 292.53 498.77 292.92 498.74 293.62C498.7 294.32 498.7 295.34 498.76 296.59C498.78 297.22 498.85 297.9 498.93 298.64C499.02 299.37 499.12 300.16 499.29 300.97C499.6 302.61 500.08 304.38 500.69 306.19C501.94 309.81 503.31 312.98 504.29 315.29C504.75 316.34 505.15 317.24 505.48 318C505.77 318.64 505.95 318.98 505.99 318.96C506.03 318.95 505.92 318.57 505.69 317.91C505.46 317.25 505.11 316.3 504.66 315.13C503.78 312.79 502.47 309.6 501.23 306C500.62 304.2 500.14 302.46 499.8 300.86C499.62 300.06 499.5 299.29 499.39 298.57C499.29 297.85 499.2 297.17 499.15 296.55C499.03 295.31 498.98 294.3 498.95 293.61C498.92 292.92 498.89 292.54 498.85 292.53Z" fill="#A36957"/>
<path d="M489.73 377.91L489.72 376.3L507.29 375.53L507.34 382.17L506.26 382.24C501.44 382.52 481.72 383.34 478.49 382.37C474.89 381.3 489.73 377.91 489.73 377.91Z" fill="#455A64"/>
<path d="M507.58 381.78C507.58 381.79 507.48 381.8 507.28 381.81C507.02 381.83 506.74 381.84 506.42 381.87C505.56 381.91 504.5 381.96 503.24 382.02C500.56 382.13 496.85 382.22 492.75 382.24C488.65 382.26 484.94 382.19 482.26 382.11C481.01 382.06 479.95 382.02 479.08 381.99C478.76 381.97 478.48 381.96 478.22 381.94C478.02 381.93 477.92 381.92 477.92 381.91C477.92 381.9 478.02 381.9 478.22 381.9C478.48 381.9 478.76 381.91 479.08 381.91C479.94 381.92 481.01 381.94 482.26 381.96C484.94 382 488.65 382.05 492.75 382.03C496.84 382.01 500.55 381.94 503.24 381.87C504.49 381.84 505.55 381.81 506.42 381.79C506.74 381.78 507.02 381.78 507.28 381.77C507.48 381.77 507.58 381.77 507.58 381.78Z" fill="#263238"/>
<path d="M484.04 382.34C483.98 382.35 483.92 381.59 483.44 380.83C482.97 380.06 482.32 379.67 482.35 379.62C482.36 379.57 483.11 379.89 483.62 380.72C484.13 381.54 484.09 382.36 484.04 382.34Z" fill="#263238"/>
<path d="M489.18 379.71C489.13 379.74 488.88 379.44 488.63 379.04C488.37 378.64 488.21 378.29 488.25 378.26C488.3 378.23 488.55 378.53 488.8 378.93C489.07 379.33 489.23 379.68 489.18 379.71Z" fill="#263238"/>
<path d="M490.6 378.95C490.56 378.99 490.28 378.81 489.98 378.54C489.68 378.27 489.46 378.02 489.5 377.97C489.54 377.93 489.82 378.11 490.12 378.38C490.42 378.66 490.64 378.91 490.6 378.95Z" fill="#263238"/>
<path d="M491.49 377.3C491.49 377.36 491.08 377.41 490.58 377.42C490.08 377.43 489.67 377.39 489.67 377.33C489.67 377.27 490.08 377.22 490.58 377.21C491.08 377.2 491.49 377.24 491.49 377.3Z" fill="#263238"/>
<path d="M491.79 376.14C491.81 376.19 491.37 376.39 490.77 376.44C490.18 376.49 489.71 376.36 489.72 376.3C489.73 376.24 490.19 376.27 490.75 376.23C491.32 376.18 491.77 376.08 491.79 376.14Z" fill="#263238"/>
<path d="M488.59 378.18C488.59 378.2 488.16 378.26 487.47 378.18C487.12 378.14 486.71 378.06 486.27 377.92C486.05 377.84 485.82 377.79 485.58 377.64C485.47 377.57 485.34 377.46 485.3 377.29C485.25 377.12 485.34 376.93 485.47 376.84C486.54 376.28 487.62 376.88 488.02 377.43C488.24 377.71 488.34 377.99 488.39 378.18C488.44 378.37 488.43 378.48 488.42 378.48C488.38 378.49 488.34 378.04 487.9 377.52C487.68 377.27 487.36 377.02 486.94 376.9C486.54 376.78 485.98 376.75 485.6 377C485.42 377.13 485.49 377.34 485.69 377.46C485.88 377.58 486.11 377.65 486.32 377.73C486.75 377.87 487.14 377.97 487.48 378.03C488.16 378.15 488.59 378.15 488.59 378.18Z" fill="#263238"/>
<path d="M488.3 378.24C488.28 378.25 488.12 377.97 488.17 377.46C488.2 377.21 488.29 376.92 488.47 376.64C488.67 376.39 488.92 376.05 489.4 376.06C489.66 376.09 489.79 376.39 489.75 376.58C489.73 376.78 489.64 376.95 489.56 377.08C489.39 377.36 489.21 377.59 489.03 377.76C488.68 378.11 488.4 378.24 488.39 378.22C488.37 378.19 488.61 378.02 488.92 377.66C489.07 377.48 489.24 377.26 489.39 376.98C489.54 376.74 489.65 376.32 489.37 376.27C489.09 376.24 488.8 376.52 488.63 376.75C488.45 376.99 488.36 377.26 488.31 377.48C488.23 377.94 488.33 378.23 488.3 378.24Z" fill="#263238"/>
<path d="M507.21 376.99C507.21 377.03 506.71 376.94 505.92 377.04C505.14 377.13 504.05 377.45 503.11 378.21C502.17 378.97 501.61 379.96 501.36 380.7C501.1 381.45 501.07 381.95 501.03 381.95C501.02 381.95 501.01 381.82 501.03 381.6C501.05 381.37 501.1 381.05 501.22 380.66C501.45 379.88 502 378.84 502.98 378.05C503.96 377.26 505.1 376.95 505.91 376.89C506.32 376.86 506.65 376.88 506.87 376.91C507.09 376.95 507.21 376.98 507.21 376.99Z" fill="#263238"/>
<path d="M498.8 380.38C498.81 380.43 497.67 380.62 496.25 380.62C494.83 380.63 493.69 380.46 493.69 380.4C493.7 380.34 494.84 380.41 496.24 380.4C497.65 380.41 498.79 380.32 498.8 380.38Z" fill="#263238"/>
<path d="M502.22 380.35C502.26 380.39 502.13 380.59 502.01 380.85C501.89 381.11 501.83 381.34 501.77 381.34C501.71 381.34 501.68 381.06 501.82 380.76C501.95 380.46 502.18 380.3 502.22 380.35Z" fill="#263238"/>
<path d="M503.51 378.74C503.55 378.78 503.44 378.96 503.26 379.15C503.08 379.33 502.9 379.45 502.86 379.41C502.82 379.37 502.93 379.19 503.11 379C503.28 378.81 503.46 378.69 503.51 378.74Z" fill="#263238"/>
<path d="M505.35 377.99C505.34 378.05 505.11 378.05 504.85 378.14C504.59 378.23 504.41 378.37 504.36 378.33C504.31 378.3 504.46 378.05 504.78 377.94C505.1 377.83 505.37 377.94 505.35 377.99Z" fill="#263238"/>
<path d="M506.66 377.64C506.68 377.69 506.58 377.78 506.44 377.84C506.3 377.9 506.16 377.9 506.14 377.84C506.12 377.79 506.22 377.7 506.36 377.64C506.51 377.59 506.64 377.59 506.66 377.64Z" fill="#263238"/>
<path d="M530.89 376.36L530.22 374.89L545.93 366.99L548.7 373.03L547.74 373.54C543.46 375.77 525.8 384.59 522.46 385.03C518.74 385.53 530.89 376.36 530.89 376.36Z" fill="#455A64"/>
<path d="M548.77 372.57C548.77 372.58 548.68 372.63 548.51 372.72C548.28 372.84 548.03 372.97 547.75 373.12C546.98 373.51 546.03 373.99 544.91 374.56C542.51 375.76 539.16 377.36 535.43 379.06C531.7 380.75 528.29 382.21 525.8 383.24C524.64 383.71 523.65 384.11 522.85 384.43C522.55 384.55 522.29 384.65 522.04 384.74C521.85 384.81 521.76 384.84 521.75 384.83C521.75 384.82 521.84 384.78 522.02 384.7C522.26 384.6 522.52 384.48 522.81 384.35C523.6 384.01 524.58 383.59 525.73 383.1C528.2 382.04 531.6 380.56 535.33 378.87C539.06 377.18 542.41 375.59 544.83 374.43C545.96 373.89 546.92 373.43 547.7 373.05C547.99 372.91 548.25 372.79 548.48 372.68C548.67 372.61 548.76 372.57 548.77 372.57Z" fill="#263238"/>
<path d="M527.52 382.74C527.46 382.77 527.11 382.1 526.35 381.6C525.61 381.09 524.85 381 524.86 380.94C524.85 380.89 525.67 380.88 526.47 381.43C527.27 381.96 527.57 382.72 527.52 382.74Z" fill="#263238"/>
<path d="M531.13 378.22C531.1 378.27 530.75 378.1 530.35 377.84C529.95 377.58 529.66 377.33 529.69 377.28C529.72 377.23 530.07 377.4 530.47 377.66C530.87 377.92 531.16 378.17 531.13 378.22Z" fill="#263238"/>
<path d="M532.11 376.96C532.09 377.02 531.76 376.96 531.38 376.84C530.99 376.72 530.7 376.57 530.71 376.52C530.73 376.46 531.05 376.52 531.44 376.64C531.83 376.76 532.13 376.9 532.11 376.96Z" fill="#263238"/>
<path d="M532.25 375.08C532.27 375.13 531.92 375.35 531.47 375.56C531.01 375.77 530.62 375.9 530.6 375.85C530.58 375.8 530.93 375.58 531.38 375.37C531.83 375.16 532.22 375.03 532.25 375.08Z" fill="#263238"/>
<path d="M532.05 373.9C532.09 373.94 531.77 374.31 531.25 374.59C530.73 374.88 530.25 374.95 530.24 374.9C530.22 374.84 530.66 374.68 531.15 374.41C531.64 374.13 532.01 373.85 532.05 373.9Z" fill="#263238"/>
<path d="M529.96 377.08C529.97 377.1 529.6 377.33 528.93 377.54C528.6 377.64 528.19 377.74 527.73 377.79C527.5 377.81 527.27 377.85 526.99 377.82C526.86 377.8 526.7 377.75 526.59 377.62C526.48 377.49 526.48 377.28 526.56 377.14C527.31 376.19 528.54 376.3 529.13 376.64C529.45 376.81 529.65 377.02 529.77 377.17C529.89 377.33 529.93 377.43 529.92 377.43C529.89 377.46 529.67 377.06 529.06 376.77C528.76 376.63 528.36 376.54 527.93 376.6C527.52 376.66 526.99 376.86 526.75 377.24C526.64 377.43 526.79 377.6 527.02 377.62C527.24 377.65 527.49 377.62 527.71 377.61C528.16 377.57 528.56 377.49 528.89 377.41C529.56 377.22 529.95 377.05 529.96 377.08Z" fill="#263238"/>
<path d="M529.72 377.25C529.71 377.27 529.44 377.07 529.28 376.59C529.2 376.35 529.16 376.05 529.22 375.72C529.3 375.41 529.39 374.99 529.84 374.81C530.09 374.73 530.68 375.24 530.72 375.43C530.78 375.62 530.42 375.52 530.41 375.68C530.37 376 530.3 376.29 530.21 376.52C530.03 376.98 529.83 377.21 529.81 377.2C529.78 377.18 529.93 376.92 530.07 376.47C530.14 376.24 530.2 375.97 530.22 375.66C530.26 375.38 530.18 374.95 529.9 375.02C529.63 375.11 529.49 375.48 529.42 375.76C529.36 376.05 529.38 376.33 529.43 376.56C529.54 377 529.75 377.23 529.72 377.25Z" fill="#263238"/>
<path d="M546.47 368.36C546.48 368.4 545.99 368.52 545.31 368.93C544.63 369.33 543.77 370.07 543.22 371.15C542.67 372.23 542.57 373.36 542.64 374.14C542.71 374.93 542.89 375.4 542.85 375.41C542.84 375.41 542.78 375.3 542.7 375.09C542.62 374.88 542.54 374.56 542.48 374.15C542.37 373.35 542.44 372.17 543.02 371.04C543.59 369.92 544.51 369.16 545.22 368.79C545.58 368.6 545.89 368.48 546.11 368.42C546.34 368.37 546.46 368.35 546.47 368.36Z" fill="#263238"/>
<path d="M540.18 374.9C540.21 374.95 539.24 375.58 537.95 376.17C536.66 376.76 535.55 377.07 535.53 377.02C535.51 376.96 536.58 376.56 537.86 375.98C539.14 375.4 540.15 374.85 540.18 374.9Z" fill="#263238"/>
<path d="M543.29 373.47C543.35 373.49 543.3 373.73 543.31 374.02C543.31 374.31 543.35 374.54 543.29 374.57C543.24 374.59 543.09 374.36 543.09 374.02C543.09 373.68 543.24 373.44 543.29 373.47Z" fill="#263238"/>
<path d="M543.8 371.47C543.85 371.49 543.83 371.7 543.74 371.94C543.65 372.18 543.53 372.36 543.48 372.34C543.43 372.32 543.45 372.11 543.54 371.87C543.63 371.63 543.74 371.45 543.8 371.47Z" fill="#263238"/>
<path d="M545.18 370.04C545.19 370.1 544.98 370.19 544.78 370.38C544.58 370.56 544.47 370.77 544.41 370.75C544.35 370.74 544.39 370.45 544.63 370.22C544.88 369.99 545.17 369.98 545.18 370.04Z" fill="#263238"/>
<path d="M546.23 369.18C546.27 369.22 546.22 369.34 546.11 369.46C546 369.57 545.88 369.63 545.84 369.59C545.8 369.55 545.85 369.43 545.96 369.31C546.07 369.19 546.19 369.14 546.23 369.18Z" fill="#263238"/>
<path d="M526.56 165.64L523.63 129.94L538.66 130.21C538.66 130.21 539.36 124.95 537.14 113.4C535.78 106.32 531.07 101.98 525.78 99.4V99.31L525.32 99.19C518.59 96.04 511.55 95.6 511.55 95.6L493.1 95.81C493.1 95.81 479.01 94.05 471.21 104.1C468.21 107.97 458.91 134.46 458.91 134.46L481.05 145.12L478.94 130.43C478.94 130.43 479.36 141.08 480.72 144.45C481.48 146.33 483.67 152.17 483.67 152.17L483.38 169.78L526.56 165.64Z" fill="#3366EE"/>
<path d="M516.39 124.76L513.65 136.42H539.48L537.78 116.86L516.39 124.76Z" fill="#3366EE"/>
<path d="M539.48 136.42C539.48 136.34 538.18 136.21 536.06 136.08C533.94 135.96 531.01 135.85 527.78 135.87C524.54 135.89 521.61 136.03 519.5 136.19C517.38 136.36 516.08 136.54 516.09 136.61C516.1 136.69 517.41 136.66 519.52 136.59C521.64 136.53 524.56 136.45 527.78 136.43C531.01 136.42 533.93 136.46 536.05 136.48C538.16 136.51 539.48 136.5 539.48 136.42Z" fill="#263238"/>
<path d="M515.27 116.77C515.19 116.77 515.16 117.91 515.18 119.74C515.2 121.57 515.27 124.1 515.37 126.89C515.48 129.68 515.61 132.21 515.73 134.03C515.85 135.86 515.97 136.98 516.05 136.98C516.13 136.98 516.16 135.84 516.14 134.01C516.12 132.18 516.05 129.65 515.95 126.86C515.84 124.07 515.71 121.55 515.59 119.72C515.47 117.89 515.35 116.77 515.27 116.77Z" fill="#263238"/>
<g opacity="0.3">
<path opacity="0.3" d="M491.77 126.87C491.77 126.87 497.51 169.44 513.65 168.31C513.65 168.31 520.92 168.22 523.25 163.39V161.49L491.77 126.87Z" fill="black"/>
</g>
<g opacity="0.3">
<path opacity="0.3" d="M515.27 119.28L512.18 140.15L514.18 143.81L517.48 136.65L516.08 136.61L515.27 119.28Z" fill="black"/>
</g>
<path d="M483.69 152.16C483.66 152.17 483.5 151.82 483.25 151.16C483 150.51 482.67 149.55 482.28 148.37C481.51 145.99 480.56 142.67 479.81 138.92C479.07 135.17 478.7 131.73 478.59 129.23C478.53 127.98 478.51 126.97 478.53 126.27C478.54 125.57 478.57 125.18 478.6 125.18C478.68 125.18 478.74 126.72 478.95 129.2C479.16 131.68 479.58 135.09 480.32 138.82C481.06 142.54 481.95 145.86 482.63 148.26C482.95 149.37 483.22 150.32 483.44 151.1C483.63 151.77 483.72 152.15 483.69 152.16Z" fill="#263238"/>
<path d="M490.21 164.39C490.07 164.43 489.67 163.51 489.32 162.34C488.96 161.17 488.79 160.18 488.93 160.14C489.07 160.1 489.47 161.02 489.82 162.19C490.17 163.37 490.35 164.35 490.21 164.39Z" fill="#263238"/>
<path d="M492.44 164.23C492.31 164.26 491.87 162.89 491.85 161.12C491.82 159.35 492.21 157.96 492.35 157.99C492.5 158.02 492.34 159.4 492.37 161.11C492.39 162.82 492.59 164.2 492.44 164.23Z" fill="#263238"/>
<path d="M481.52 145.6C481.46 145.73 476.3 143.28 470.01 140.14C463.72 137 458.67 134.34 458.73 134.21C458.79 134.08 463.95 136.53 470.24 139.67C476.53 142.81 481.58 145.47 481.52 145.6Z" fill="#263238"/>
<path d="M490.6 99.25C490.72 94.19 490.74 88.86 490.74 88.86C490.74 88.86 484.25 87.61 483.12 79.07C482.04 70.93 485.06 51.82 485.06 51.82C494.54 48.24 504.39 51.48 510.88 59.16L509.27 100.23C509.08 105 504.83 108.64 499.73 108.4C494.57 108.17 490.49 104.07 490.6 99.25Z" fill="#FBBEBE"/>
<path d="M484.56 67.1C484.52 67.68 484.98 68.18 485.58 68.23C486.18 68.28 486.69 67.85 486.73 67.28C486.77 66.7 486.31 66.2 485.71 66.15C485.12 66.1 484.6 66.52 484.56 67.1Z" fill="#263238"/>
<path d="M484.16 65.67C484.29 65.82 485.13 65.23 486.31 65.26C487.48 65.28 488.33 65.9 488.46 65.76C488.52 65.7 488.39 65.44 488.03 65.16C487.67 64.88 487.05 64.6 486.31 64.58C485.58 64.57 484.96 64.82 484.6 65.08C484.22 65.35 484.09 65.6 484.16 65.67Z" fill="#263238"/>
<path d="M496.47 67.84C496.43 68.42 496.89 68.92 497.49 68.97C498.09 69.02 498.6 68.59 498.64 68.02C498.68 67.44 498.22 66.94 497.62 66.89C497.02 66.84 496.51 67.27 496.47 67.84Z" fill="#263238"/>
<path d="M496.39 66.41C496.52 66.56 497.36 65.97 498.54 66C499.71 66.02 500.56 66.64 500.69 66.5C500.75 66.44 500.62 66.18 500.25 65.89C499.89 65.61 499.27 65.33 498.53 65.31C497.8 65.3 497.18 65.55 496.82 65.81C496.46 66.09 496.33 66.34 496.39 66.41Z" fill="#263238"/>
<path d="M491.91 75C491.92 74.93 491.19 74.79 490.01 74.61C489.71 74.57 489.43 74.5 489.38 74.3C489.31 74.08 489.45 73.76 489.6 73.42C489.9 72.7 490.21 71.95 490.54 71.16C491.85 67.94 492.81 65.3 492.68 65.24C492.55 65.19 491.38 67.75 490.06 70.97C489.74 71.76 489.44 72.52 489.15 73.24C489.03 73.58 488.82 73.96 488.96 74.41C489.03 74.64 489.25 74.8 489.44 74.86C489.63 74.92 489.8 74.93 489.95 74.94C491.16 75.04 491.9 75.07 491.91 75Z" fill="#263238"/>
<path d="M490.74 88.87C490.74 88.87 496.45 89.39 502.21 86.13C502.21 86.13 499.3 91.9 490.81 90.88L490.74 88.87Z" fill="#A36957"/>
<path d="M500.15 63.02C499.91 63.39 499.02 63.22 498.02 63.04C497.02 62.84 496.13 62.66 496.05 62.23C495.95 61.82 496.98 61.25 498.32 61.5C499.64 61.77 500.39 62.68 500.15 63.02Z" fill="#263238"/>
<path d="M488.48 61.3C488.39 61.73 487.43 61.88 486.33 61.94C485.23 61.98 484.26 61.92 484.13 61.5C484 61.1 484.93 60.44 486.26 60.38C487.59 60.32 488.57 60.89 488.48 61.3Z" fill="#263238"/>
<path d="M491.93 77.81C491.68 77.74 491.4 77.88 491.28 78.11C491.13 78.38 491.2 78.74 491.43 78.94C491.66 79.14 492.04 79.14 492.28 78.95C492.52 78.76 492.6 78.39 492.46 78.12C492.32 77.85 491.98 77.7 491.68 77.79" fill="#A36957"/>
<path d="M492.2 77.93C492.25 77.88 492.01 77.59 491.5 77.71C491.26 77.76 490.95 77.97 490.86 78.34C490.77 78.68 490.85 79.12 491.21 79.4C491.59 79.66 492.04 79.61 492.33 79.41C492.65 79.2 492.74 78.82 492.69 78.58C492.59 78.05 492.2 77.97 492.19 78.04C492.15 78.11 492.33 78.29 492.29 78.6C492.27 78.75 492.2 78.89 492.05 78.97C491.9 79.05 491.67 79.05 491.54 78.95C491.4 78.85 491.33 78.63 491.36 78.47C491.38 78.3 491.49 78.18 491.63 78.1C491.92 77.92 492.17 78 492.2 77.93Z" fill="#263238"/>
<path d="M506.95 69.21C505.94 71.55 503.47 73.36 503.81 75.89C504.03 77.52 505.08 79.05 504.88 80.68C504.62 82.73 502.49 84.16 502.19 86.21C501.82 88.72 504.26 90.67 505.24 93.02C506.66 96.43 504.84 100.27 504.8 103.97C504.73 109.63 509.55 114.92 515.19 115.39C517.47 115.58 520.04 114.89 521.23 112.93C522.21 111.31 522.01 109.26 522.6 107.46C523.47 104.78 526.02 102.83 526.56 100.06C527.54 95.02 521.45 90.86 521.85 85.74C522.02 83.55 523.37 81.65 523.94 79.53C524.69 76.76 524 73.64 522.15 71.44C520.65 69.65 518.47 68.48 517.19 66.53C515.74 64.32 515.69 61.51 515.14 58.92C513.81 52.61 509.07 47.13 503.02 44.9C496.97 42.67 489.8 43.76 484.69 47.69C484.69 47.69 483.24 54.28 490 55.38C496.77 56.48 499.9 55.21 500.66 57.92C500.66 57.92 499.89 61.09 502.69 64.11C505.49 67.13 508.12 66.49 506.95 69.21Z" fill="#263238"/>
<path d="M517.75 114.92C517.75 114.94 517.54 114.92 517.13 114.86C516.73 114.8 516.14 114.66 515.41 114.4C513.97 113.87 511.92 112.72 510.18 110.52C509.31 109.43 508.5 108.11 507.95 106.56C507.39 105.02 507.07 103.27 507.04 101.43C507 99.59 507.26 97.65 507.76 95.72C508.01 94.75 508.34 93.79 508.72 92.83C509.09 91.87 509.55 90.94 509.82 89.96C510.1 88.98 510.07 87.98 509.81 87.03C509.55 86.08 509.1 85.18 508.67 84.29C508.23 83.4 507.79 82.52 507.5 81.58C507.21 80.65 507.1 79.64 507.29 78.71C507.69 76.83 508.83 75.43 509.51 74C510.22 72.58 510.45 71.09 510.42 69.74C510.3 67.02 509.14 65 508.19 63.84C507.2 62.68 506.45 62.23 506.49 62.19C506.49 62.19 507.28 62.56 508.34 63.71C509.36 64.86 510.61 66.9 510.78 69.72C510.84 71.11 510.63 72.69 509.9 74.18C509.21 75.66 508.11 77.07 507.76 78.79C507.41 80.53 508.23 82.32 509.12 84.06C509.56 84.95 510.02 85.87 510.3 86.89C510.58 87.9 510.62 89.05 510.31 90.09C510.03 91.14 509.56 92.08 509.19 93.02C508.82 93.96 508.49 94.91 508.24 95.85C507.74 97.74 507.48 99.63 507.51 101.42C507.52 105.02 508.76 108.18 510.45 110.29C512.11 112.46 514.07 113.63 515.47 114.2C516.9 114.77 517.76 114.86 517.75 114.92Z" fill="#455A64"/>
<path d="M516.75 64.46C516.75 64.49 516.23 64.59 515.26 64.68C514.3 64.76 512.88 64.87 511.14 64.57C509.45 64.26 507.3 63.43 505.94 61.42C505.27 60.41 505.01 59.19 504.58 58.06C504.17 56.92 503.38 55.93 502.3 55.25C500.11 53.86 497.54 53.69 495.29 53.42C493.03 53.16 490.9 52.68 489.46 51.6C488.01 50.57 487.27 49.23 487.07 48.26C486.96 47.78 486.97 47.39 486.99 47.13C487.03 46.87 487.05 46.74 487.07 46.74C487.13 46.74 487 47.29 487.26 48.2C487.5 49.1 488.25 50.34 489.66 51.29C491.05 52.27 493.08 52.7 495.33 52.93C497.56 53.18 500.23 53.32 502.57 54.8C503.73 55.52 504.62 56.65 505.04 57.86C505.49 59.05 505.73 60.22 506.33 61.14C507.55 63 509.57 63.85 511.19 64.19C512.86 64.53 514.27 64.48 515.23 64.46C516.21 64.45 516.75 64.42 516.75 64.46Z" fill="#455A64"/>
<path d="M514.27 56.32C514.28 56.35 513.87 56.47 513.1 56.49C512.34 56.51 511.2 56.38 509.94 55.78C509.31 55.48 508.67 55.06 508.08 54.49C507.48 53.92 506.99 53.19 506.53 52.42C505.63 50.9 504.76 49.02 502.89 48.25C501.06 47.46 499.04 47.64 497.29 47.76C495.52 47.93 493.86 47.99 492.51 47.72C491.15 47.48 490.13 46.92 489.56 46.4C489.27 46.14 489.08 45.91 488.97 45.74C488.86 45.57 488.81 45.48 488.82 45.47C488.86 45.44 489.1 45.79 489.69 46.24C490.27 46.69 491.26 47.17 492.57 47.36C493.89 47.57 495.47 47.49 497.25 47.29C499.01 47.15 501.09 46.93 503.1 47.78C504.1 48.2 504.91 48.95 505.49 49.76C506.08 50.57 506.5 51.42 506.95 52.18C507.39 52.95 507.84 53.65 508.39 54.19C508.93 54.74 509.52 55.16 510.11 55.46C511.28 56.07 512.37 56.26 513.11 56.3C513.85 56.33 514.26 56.27 514.27 56.32Z" fill="#455A64"/>
<path d="M520.73 112.76C520.68 112.74 521 112.09 521.37 110.86C521.74 109.63 522.1 107.79 522.04 105.5C521.96 103.23 521.41 100.48 519.91 97.86C519.18 96.55 518.07 95.38 517.16 93.95C516.71 93.23 516.32 92.43 516.15 91.54C515.98 90.65 516.08 89.7 516.37 88.84C516.93 87.11 517.94 85.66 518.15 84.07C518.42 82.48 517.61 81.03 516.85 79.73C516.46 79.07 516.08 78.42 515.78 77.74C515.48 77.06 515.29 76.34 515.21 75.65C515.06 74.26 515.22 72.98 515.32 71.84C515.61 69.56 515.4 67.68 514.85 66.53C514.32 65.36 513.62 65.01 513.67 64.96C513.68 64.95 513.72 64.97 513.79 65.02C513.86 65.07 513.98 65.13 514.11 65.25C514.38 65.47 514.73 65.85 515.03 66.44C515.66 67.61 515.93 69.57 515.69 71.87C515.61 73.02 515.47 74.28 515.64 75.6C515.77 76.93 516.46 78.18 517.26 79.48C517.65 80.14 518.06 80.83 518.35 81.61C518.65 82.38 518.78 83.27 518.65 84.13C518.41 85.88 517.38 87.36 516.86 88.98C516.59 89.79 516.51 90.63 516.65 91.43C516.8 92.23 517.15 92.98 517.58 93.67C518.44 95.05 519.56 96.24 520.31 97.61C521.85 100.32 522.36 103.15 522.4 105.48C522.42 107.82 521.99 109.69 521.56 110.91C521.34 111.52 521.15 111.99 520.98 112.29C520.83 112.61 520.75 112.77 520.73 112.76Z" fill="#455A64"/>
<path d="M480 299.09C480 299.09 473.27 235.25 472.88 211.66C472.49 188.07 483.49 164.79 483.49 164.79L526.57 162.97C526.57 162.97 535.09 186.91 535.24 196.96C535.54 216.5 530.05 235.79 530.68 251.29L532.12 299.09" fill="#263238"/>
<path d="M533.56 220.6C533.57 220.62 533.32 220.8 532.86 221.13C532.74 221.22 532.61 221.31 532.47 221.41C532.34 221.52 532.2 221.67 532.05 221.81C531.75 222.1 531.39 222.43 531.09 222.88C529.7 224.58 528.68 227.63 527.72 231.43C527.19 233.32 526.65 235.43 525.54 237.5C525.24 238.01 524.97 238.54 524.58 239.01C524.39 239.25 524.22 239.51 524.02 239.74L523.36 240.4C522.46 241.29 521.32 241.95 520.12 242.48C517.71 243.54 514.99 244.04 512.5 245.29C510 246.51 508.12 248.87 506.97 251.59C505.76 254.3 505.02 257.14 504.01 259.8C503.02 262.44 501.66 265 499.51 266.62C497.38 268.3 494.74 268.68 492.46 268.83C490.14 268.97 487.99 268.9 486.07 269.19C484.15 269.46 482.45 270.06 481.25 271.01C480.04 271.96 479.34 273.15 479.01 274.17C478.67 275.2 478.73 276.07 478.84 276.62C478.95 277.18 479.11 277.45 479.07 277.46C479.07 277.46 478.88 277.21 478.73 276.64C478.58 276.08 478.48 275.18 478.81 274.1C479.12 273.03 479.82 271.79 481.06 270.78C482.3 269.77 484.05 269.12 486.01 268.82C487.97 268.5 490.14 268.55 492.43 268.39C494.69 268.23 497.21 267.83 499.22 266.23C501.25 264.69 502.56 262.22 503.53 259.61C504.52 256.98 505.26 254.14 506.49 251.37C507.65 248.6 509.64 246.09 512.26 244.83C514.85 243.55 517.57 243.06 519.92 242.04C521.09 241.53 522.18 240.9 523.04 240.07L523.68 239.44C523.88 239.22 524.04 238.97 524.22 238.75C524.6 238.3 524.86 237.78 525.15 237.3C526.25 235.3 526.8 233.21 527.36 231.33C528.37 227.55 529.45 224.46 530.93 222.76C531.25 222.31 531.63 221.98 531.94 221.7C532.1 221.56 532.24 221.42 532.38 221.31C532.53 221.22 532.67 221.13 532.79 221.05C533.29 220.74 533.55 220.59 533.56 220.6Z" fill="#FAFAFA"/>
<path d="M533.82 191.06C533.84 191.06 533.86 191.35 533.88 191.92C533.89 192.48 533.82 193.32 533.58 194.36C533.08 196.44 531.56 199.3 528.71 201.89C527.3 203.19 525.61 204.44 523.66 205.58C521.73 206.73 519.6 207.82 517.42 209.05C515.25 210.29 513 211.68 511.03 213.54C509.03 215.37 507.54 217.78 506.19 220.34C504.83 222.89 503.63 225.48 502 227.73C501.19 228.85 500.28 229.88 499.27 230.75C498.25 231.62 497.14 232.33 496.02 232.92C493.76 234.09 491.46 234.82 489.33 235.49C487.19 236.15 485.2 236.74 483.45 237.47C481.7 238.19 480.19 239.01 478.97 239.87C477.75 240.74 476.82 241.64 476.16 242.46C474.83 244.11 474.55 245.3 474.47 245.27C474.45 245.26 474.55 244.99 474.75 244.46C474.98 243.95 475.34 243.19 476 242.34C476.65 241.49 477.57 240.54 478.8 239.63C480.03 238.73 481.55 237.88 483.31 237.13C485.07 236.37 487.07 235.76 489.2 235.08C491.32 234.4 493.6 233.66 495.8 232.5C496.9 231.92 497.97 231.23 498.95 230.38C499.92 229.53 500.81 228.53 501.59 227.44C503.18 225.24 504.37 222.67 505.74 220.1C507.09 217.54 508.63 215.06 510.69 213.18C512.71 211.28 515 209.88 517.19 208.64C519.39 207.41 521.52 206.34 523.45 205.22C525.38 204.12 527.06 202.9 528.47 201.64C531.3 199.13 532.84 196.36 533.39 194.33C533.92 192.26 533.74 191.05 533.82 191.06Z" fill="#FAFAFA"/>
<path d="M473.09 215.04C473.08 215.04 473.05 214.98 473 214.85C472.96 214.72 472.87 214.52 472.81 214.25C472.69 213.72 472.61 212.87 472.91 211.85C473.47 209.81 475.68 207.28 479.24 206.01C481.01 205.4 483.03 205.03 485.12 204.48C487.19 203.92 489.45 203.14 491.14 201.41C491.98 200.55 492.69 199.54 493.27 198.42C493.84 197.29 494.32 196.08 494.76 194.83C495.66 192.34 496.41 189.63 497.93 187.16C499.44 184.68 501.9 182.95 504.45 182.09C506.99 181.16 509.56 180.74 511.93 180.19C514.32 179.67 516.55 179 518.44 177.97C520.31 176.91 521.79 175.5 522.84 174C525 171 525.56 167.93 525.64 165.9C525.69 163.84 525.36 162.71 525.43 162.7C525.43 162.7 525.83 163.8 525.85 165.9C525.83 167.96 525.32 171.11 523.15 174.21C522.09 175.76 520.58 177.23 518.66 178.34C516.72 179.41 514.44 180.11 512.05 180.65C509.66 181.21 507.11 181.64 504.64 182.56C502.15 183.42 499.84 185.05 498.38 187.43C496.91 189.8 496.16 192.48 495.25 194.99C494.8 196.25 494.31 197.48 493.72 198.64C493.11 199.79 492.37 200.85 491.48 201.74C489.69 203.56 487.33 204.34 485.23 204.89C483.1 205.43 481.1 205.77 479.36 206.35C475.89 207.53 473.69 209.96 473.1 211.9C472.78 212.87 472.82 213.69 472.91 214.22C473.03 214.75 473.12 215.03 473.09 215.04Z" fill="#FAFAFA"/>
<path d="M530.12 269.02C530.14 269.02 530.16 269.23 530.19 269.65C530.21 270.06 530.18 270.68 530.01 271.46C529.66 273 528.47 275.11 526.23 276.86C525.13 277.75 523.8 278.56 522.26 279.21C520.73 279.86 519.04 280.38 517.28 280.93C515.52 281.48 513.67 282.06 511.87 282.9C510.06 283.73 508.39 284.94 506.95 286.49C505.49 288.02 504.23 289.69 502.84 291.16C501.45 292.64 499.87 293.86 498.23 294.77C494.94 296.59 491.53 297.21 488.72 297.24C485.89 297.27 483.65 296.68 482.17 296.15C481.43 295.89 480.87 295.63 480.51 295.44C480.14 295.26 479.95 295.15 479.96 295.14C479.97 295.12 480.17 295.2 480.55 295.35C480.93 295.51 481.49 295.74 482.23 295.97C483.71 296.43 485.93 296.96 488.7 296.88C491.46 296.8 494.79 296.15 497.98 294.36C499.57 293.47 501.09 292.28 502.45 290.82C503.82 289.37 505.07 287.7 506.56 286.14C508.02 284.56 509.79 283.29 511.64 282.45C513.49 281.59 515.36 281.02 517.13 280.48C518.9 279.94 520.58 279.44 522.08 278.82C523.58 278.2 524.9 277.42 525.98 276.57C528.19 274.89 529.39 272.89 529.79 271.4C530.2 269.9 530.04 269.02 530.12 269.02Z" fill="#FAFAFA"/>
<path d="M525.21 136.46L516.88 136.66C516.33 139.47 515 141.39 515 141.39C508.03 129.3 502.63 113.1 501.29 106.59C501.49 105.94 501.72 105.22 502.01 104.42C502.34 103.49 502.06 101.73 501.9 100.76C501.67 99.31 501.26 97.36 501.14 96.46C500.77 93.71 500.33 93.28 499.37 93.59C498.06 94.01 499.91 101.32 498.84 101.47C498.27 101.56 497.56 99.05 497.36 97C497.16 94.95 496.23 88.63 495.55 88.21C494.56 87.59 493.69 88.57 493.94 90.61C494.19 92.68 494.51 98.85 493.43 98.93C492.36 99.01 491.46 88.54 491.46 88.54C491.46 88.54 491.63 86.26 490.37 86.32C488.1 86.42 489.87 97.46 490.07 98.5C490.21 99.23 489.03 99.36 488.93 98.57C488.82 97.76 488.28 88.1 485.97 88.18C484.2 88.24 487.34 97.28 486.35 99.37C485.36 101.46 484.67 92.26 482.97 92.38C482.34 92.43 481.88 92.55 483.03 97.76C483.65 100.56 485.48 105.71 487.07 109.97C489.75 124.42 501.51 170.65 519.94 162.18C530.25 157.45 534.44 136.46 534.44 136.46H525.21Z" fill="#FBBEBE"/>
<path d="M489.66 99.2C489.66 99.2 489.74 99.21 489.9 99.17C490.04 99.13 490.32 98.95 490.28 98.59C490.26 97.97 490.16 97.07 490.02 95.9C489.91 94.72 489.56 93.31 489.56 91.64C489.55 90.8 489.57 89.9 489.62 88.95C489.65 88.47 489.66 87.98 489.77 87.51C489.85 87.06 490.15 86.54 490.5 86.6L490.54 86.61H490.56C490.92 86.59 491.19 86.87 491.31 87.29C491.44 87.69 491.47 88.17 491.44 88.63V88.65V88.66C491.67 91.22 491.93 94.02 492.51 97.01C492.59 97.38 492.67 97.76 492.79 98.14C492.85 98.33 492.91 98.52 493 98.71C493.05 98.81 493.09 98.9 493.17 99.01C493.24 99.1 493.33 99.25 493.59 99.27C494.01 99.24 494.13 98.92 494.22 98.74C494.31 98.53 494.37 98.33 494.41 98.13C494.5 97.72 494.54 97.32 494.57 96.91C494.68 95.28 494.62 93.61 494.5 91.91C494.46 91.05 494.25 90.19 494.4 89.41C494.47 89.03 494.63 88.64 494.89 88.48C495.02 88.4 495.16 88.39 495.32 88.43C495.4 88.45 495.48 88.49 495.56 88.53C495.63 88.59 495.61 88.56 495.67 88.68C496 89.4 496.18 90.33 496.36 91.19C496.54 92.08 496.69 92.98 496.83 93.89C496.97 94.8 497.1 95.72 497.21 96.65C497.3 97.58 497.43 98.55 497.67 99.49C497.79 99.96 497.92 100.43 498.12 100.9C498.22 101.13 498.33 101.37 498.53 101.61C498.6 101.71 498.84 101.9 499.13 101.83C499.41 101.74 499.49 101.51 499.54 101.38C499.7 100.8 499.65 100.33 499.65 99.82C499.63 99.32 499.59 98.83 499.55 98.34C499.48 97.5 499.4 96.66 499.37 95.84C499.36 95.43 499.36 95.02 499.4 94.64C499.42 94.45 499.46 94.26 499.52 94.12C499.55 94.05 499.59 94 499.62 93.97C499.64 93.95 499.65 93.96 499.66 93.94L499.79 93.9C500.45 93.63 500.67 94.55 500.85 95.29C501 96.07 501.1 96.87 501.26 97.66C501.52 99.24 501.86 100.8 502.04 102.3C502.11 103.05 502.17 103.82 501.95 104.45C501.71 105.17 501.48 105.89 501.25 106.6L501.23 106.66L501.25 106.73C502.47 112.11 504.16 116.92 505.72 121.19C507.3 125.46 508.89 129.14 510.28 132.16C511.67 135.18 512.92 137.5 513.79 139.09C514.23 139.84 514.57 140.44 514.83 140.88C515.07 141.28 515.2 141.49 515.22 141.48C515.23 141.47 515.13 141.25 514.91 140.83C514.67 140.38 514.35 139.77 513.95 139C513.14 137.39 511.94 135.05 510.59 132.02C509.24 128.99 507.7 125.3 506.15 121.03C504.62 116.76 502.96 111.94 501.78 106.62L501.77 106.75C502 106.05 502.23 105.35 502.47 104.63C502.74 103.81 502.66 103.02 502.59 102.24C502.41 100.68 502.08 99.16 501.82 97.57C501.67 96.79 501.57 95.98 501.41 95.17C501.32 94.76 501.23 94.35 501 93.93C500.89 93.73 500.72 93.5 500.45 93.37C500.17 93.25 499.89 93.28 499.66 93.34L499.49 93.39C499.41 93.42 499.32 93.46 499.26 93.52C499.13 93.63 499.06 93.76 499.01 93.88C498.9 94.12 498.87 94.34 498.84 94.56C498.79 95 498.79 95.43 498.81 95.85C498.84 96.7 498.92 97.54 498.99 98.38C499.03 98.87 499.07 99.35 499.09 99.83C499.11 100.3 499.12 100.81 499.02 101.17C498.99 101.27 498.95 101.26 499 101.31C499 101.28 499.01 101.36 499.01 101.35V101.34C499.01 101.33 499.01 101.31 499.01 101.31C499.02 101.3 499.04 101.27 499.02 101.26C499.01 101.26 498.99 101.24 498.96 101.2C498.85 101.07 498.74 100.87 498.65 100.66C498.47 100.24 498.34 99.79 498.23 99.33C498 98.41 497.87 97.5 497.78 96.56C497.67 95.62 497.54 94.69 497.39 93.77C497.25 92.85 497.09 91.94 496.91 91.05C496.7 90.15 496.57 89.28 496.15 88.38C496.12 88.29 495.95 88.09 495.84 88.03C495.73 87.96 495.6 87.91 495.47 87.87C495.2 87.8 494.87 87.83 494.62 87.99C494.12 88.32 493.97 88.84 493.88 89.29C493.8 89.76 493.81 90.22 493.86 90.66C493.91 91.09 493.95 91.51 493.98 91.93C494.11 93.61 494.17 95.27 494.07 96.86C494.04 97.25 494 97.65 493.93 98.02C493.89 98.21 493.84 98.38 493.78 98.54C493.75 98.62 493.71 98.69 493.67 98.73C493.63 98.81 493.6 98.71 493.61 98.85C493.66 98.75 493.61 98.8 493.57 98.72C493.53 98.67 493.49 98.58 493.45 98.51C493.38 98.35 493.32 98.17 493.26 98C493.15 97.65 493.06 97.28 492.98 96.91C492.39 93.97 492.11 91.16 491.85 88.63V88.66C491.87 88.15 491.84 87.66 491.69 87.17C491.61 86.93 491.5 86.69 491.3 86.5C491.1 86.31 490.82 86.22 490.56 86.23L490.62 86.24C490.22 86.17 489.92 86.41 489.76 86.65C489.59 86.9 489.51 87.17 489.45 87.43C489.34 87.96 489.34 88.45 489.32 88.93C489.28 89.89 489.28 90.8 489.3 91.64C489.33 93.35 489.72 94.76 489.85 95.92C490.02 97.08 490.15 97.98 490.21 98.59C490.27 98.88 490.04 99.07 489.92 99.11C489.74 99.18 489.65 99.19 489.66 99.2Z" fill="#A36957"/>
<path d="M424.53 150.23C424.53 150.23 421.76 150.1 418.74 150.89C413.58 152.25 404.66 157.65 404.29 164.33H410.76C410.76 164.33 407.13 172.05 408.2 171.33C410.96 169.48 416.47 163.88 416.47 163.88L424.53 150.23Z" fill="#FBBEBE"/>
<path d="M512.86 34.04C512.72 34.05 512.13 28.7 511.55 22.08C510.97 15.46 510.61 10.09 510.76 10.08C510.9 10.07 511.49 15.42 512.07 22.04C512.65 28.66 513 34.03 512.86 34.04Z" fill="#263238"/>
<path d="M541.27 10.41C541.39 10.49 537.01 16.84 531.5 24.59C525.99 32.34 521.42 38.55 521.3 38.47C521.18 38.39 525.56 32.04 531.07 24.29C536.58 16.54 541.15 10.33 541.27 10.41Z" fill="#263238"/>
<path d="M553.07 39.19C553.1 39.33 547.99 40.5 541.67 41.8C535.34 43.1 530.19 44.04 530.16 43.9C530.13 43.76 535.24 42.59 541.56 41.29C547.89 39.99 553.04 39.05 553.07 39.19Z" fill="#263238"/>
<path d="M212.96 176.54L177.6 358.34L172.97 382.14L409.03 380.98C419.62 380.93 429.01 371.52 432.42 357.55L474.28 185.91C476.87 175.3 471.19 164.27 463.15 164.27L224.23 164.52C218.95 164.53 214.34 169.45 212.96 176.54Z" fill="#3366EE"/>
<g opacity="0.5">
<path opacity="0.5" d="M212.96 176.54L177.6 358.34L172.97 382.14L409.03 380.98C419.62 380.93 429.01 371.52 432.42 357.55L474.28 185.91C476.87 175.3 471.19 164.27 463.15 164.27L224.23 164.52C218.95 164.53 214.34 169.45 212.96 176.54Z" fill="black"/>
</g>
<path d="M386.39 346.03L361.4 144.62C360.38 136.37 353.8 130.21 346.04 130.24L291.23 130.42C287.17 130.43 283.28 132.16 280.4 135.22L254.38 162.88L101.95 163.68C92.64 163.73 85.48 172.54 86.71 182.45L109.92 368.6C110.95 376.84 117.51 382.99 125.26 382.97L390.91 382.45C420.5 383.06 423.32 374.33 423.32 374.33C389.41 381.83 386.39 346.05 386.39 346.03Z" fill="#3366EE"/>
<g opacity="0.5">
<path opacity="0.5" d="M271.84 305.72L262.88 315.34L193.88 253.26L202.84 243.64L271.84 305.72Z" fill="white"/>
<path opacity="0.5" d="M259.13 241.51L269.03 250.42L206.59 317.47L196.69 308.57L259.13 241.51Z" fill="white"/>
</g>
<path d="M424.32 45.78C423.68 45.51 423.22 44.88 423.19 44.14L422.79 34.86C422.76 34.28 423.01 33.71 423.46 33.34C423.91 32.97 424.51 32.83 425.08 32.96C426.57 33.31 428.22 32.99 429.59 32.07C430.86 31.22 431.71 29.98 431.92 28.65C432.14 27.33 431.73 25.86 430.8 24.63C429.8 23.31 428.33 22.43 426.86 22.26C423.85 21.91 420.6 24.22 419.76 27.3C419.49 28.29 418.47 28.88 417.47 28.61C416.46 28.33 415.89 27.31 416.16 26.32C417.47 21.48 422.47 18 427.29 18.55C429.79 18.84 432.16 20.23 433.78 22.38C435.32 24.42 435.99 26.92 435.61 29.25C435.23 31.59 433.79 33.75 431.66 35.17C430.12 36.2 428.36 36.76 426.6 36.82L426.91 43.98C426.95 45.01 426.16 45.88 425.13 45.92C424.85 45.94 424.57 45.89 424.32 45.78Z" fill="#3366EE"/>
<path d="M427.06 49.58C427.12 50.42 426.48 51.15 425.64 51.21C424.8 51.27 424.07 50.63 424.01 49.79C423.95 48.95 424.59 48.22 425.43 48.16C426.27 48.1 427 48.74 427.06 49.58Z" fill="#3366EE"/>
<path d="M392.19 32.69C392.2 32.69 392.23 32.48 392.28 32.08C392.33 31.65 392.39 31.05 392.48 30.29C392.52 29.5 392.73 28.54 392.96 27.42C393.09 26.86 393.16 26.24 393.37 25.61C393.57 24.98 393.77 24.3 393.99 23.59C394.96 20.78 396.45 17.41 398.96 14.06C401.45 10.72 404.96 7.41001 409.46 4.91001C411.68 3.59 414.21 2.67 416.87 1.85C419.57 1.21 422.43 0.660005 425.42 0.730005C426.91 0.650005 428.42 0.870005 429.96 1.00001C430.73 1.07 431.48 1.28 432.25 1.41C433.02 1.55 433.8 1.70001 434.55 1.97001C437.64 2.76001 440.64 4.22 443.49 6.02C449.23 9.63 454.06 15.5 456.71 22.62C458.04 26.18 458.67 30.08 458.67 34.03C458.75 37.98 457.98 41.99 456.58 45.77L456.13 46.91L456.07 47.06L456.13 47.2C458.64 52.98 461.1 58.64 463.48 64.13L463.9 63.65C458.74 61.67 453.73 59.74 448.92 57.9L448.73 57.83L448.58 57.97C444.42 62 439.46 64.72 434.44 66.13C429.4 67.55 424.32 67.62 419.71 66.8C415.08 65.98 410.92 64.21 407.44 61.94C403.96 59.67 401.16 56.9 399.01 54.09C396.87 51.25 395.46 48.33 394.4 45.73C393.46 43.07 392.89 40.71 392.61 38.75C392.49 37.77 392.39 36.91 392.3 36.15C392.28 35.4 392.26 34.77 392.25 34.24C392.23 33.75 392.22 33.36 392.21 33.07C392.21 32.83 392.2 32.69 392.19 32.69C392.18 32.69 392.17 32.82 392.17 33.09C392.17 33.38 392.16 33.77 392.15 34.26C392.15 34.79 392.15 35.43 392.15 36.18C392.23 36.94 392.32 37.82 392.41 38.8C392.66 40.77 393.2 43.16 394.12 45.86C395.16 48.5 396.56 51.46 398.7 54.36C400.86 57.22 403.67 60.05 407.19 62.38C410.7 64.71 414.92 66.53 419.62 67.38C424.31 68.23 429.47 68.18 434.6 66.75C439.72 65.32 444.78 62.57 449.03 58.47L448.7 58.54C453.5 60.39 458.51 62.32 463.67 64.32L464.42 64.61L464.09 63.84C461.71 58.35 459.25 52.68 456.75 46.9V47.19L457.21 46.02C458.65 42.16 459.43 38.05 459.35 34.02C459.35 29.99 458.7 26 457.34 22.36C454.63 15.09 449.68 9.11001 443.83 5.45001C440.91 3.62001 437.86 2.15 434.71 1.35C433.94 1.09 433.15 0.940006 432.37 0.790006C431.59 0.660006 430.82 0.450006 430.04 0.380006C428.48 0.250006 426.95 0.0400061 425.43 0.130006C422.39 0.0700061 419.49 0.640004 416.75 1.3C414.05 2.14 411.49 3.09 409.25 4.44C404.7 7.01 401.17 10.38 398.67 13.79C396.16 17.2 394.68 20.63 393.75 23.47C393.54 24.19 393.34 24.87 393.15 25.52C392.95 26.16 392.89 26.79 392.77 27.35C392.55 28.49 392.37 29.45 392.35 30.25C392.29 31.02 392.25 31.61 392.22 32.05C392.18 32.49 392.17 32.69 392.19 32.69Z" fill="#263238"/>
</svg>
